<?xml version="1.0" encoding="utf-8"?>
<!-- Generator: Adobe Illustrator 15.0.0, SVG Export Plug-In . SVG Version: 6.00 Build 0)  -->
<!DOCTYPE svg PUBLIC "-//W3C//DTD SVG 1.1//EN" "http://www.w3.org/Graphics/SVG/1.1/DTD/svg11.dtd">
<svg version="1.1" id="Layer_1" xmlns="http://www.w3.org/2000/svg" xmlns:xlink="http://www.w3.org/1999/xlink" x="0px" y="0px"
	 width="206.07px" height="27.855px" viewBox="88.747 0.967 206.07 27.855" enable-background="new 88.747 0.967 206.07 27.855"
	 xml:space="preserve">
<g id="index">
	<g id="L-index" transform="translate(-259.000000, -277.000000)">
		<g id="head" transform="translate(230.000000, 230.000000)">
			<g id="logo" transform="translate(29.683594, 47.000000)">
				<path id="Fill-66" display="none" fill="#FFFFFF" d="M295.601,19.647c-0.074-0.349-0.228-0.651-0.46-0.901
					c-0.183-0.192-0.398-0.348-0.644-0.457c-0.199-0.1-0.42-0.17-0.656-0.21c-0.193-0.032-0.397-0.044-0.605-0.044l-105.26-0.003
					c-0.571,0-1.164,0.204-1.762,0.605c-0.543,0.366-0.971,0.818-1.264,1.332l-2.667,4.595c-0.387,0.649-0.576,1.474-0.393,2.053
					c0.239,0.762,0.973,1.484,1.821,1.484l1.69,0.005l-0.986,1.694l6.475,0.001l0.985-1.693h11.452l-0.983,1.765h6.196l0.985-1.765
					h14.818l-0.986,1.693l8.356-0.001c0.561,0,1.152-0.075,1.739-0.494c0.521-0.392,0.732-0.569,1.175-1.034l0.166-0.166
					l54.376-0.001c0.229,0,0.461-0.03,0.688-0.072c0.221-0.042,0.44-0.104,0.655-0.184l0.033-0.012
					c0.309-0.124,0.613-0.29,0.912-0.498l0.025-0.019c0.175-0.129,0.351-0.277,0.529-0.443c0.178-0.169,0.344-0.351,0.492-0.541
					c0.122-0.149,0.24-0.308,0.354-0.477c0.115-0.168,0.228-0.349,0.334-0.535l1.818-3.192c0.102-0.178,0.187-0.34,0.26-0.495
					c0.083-0.17,0.15-0.328,0.204-0.482l0.016-0.04c0.083-0.261,0.134-0.501,0.152-0.735
					C295.666,20.121,295.649,19.875,295.601,19.647"/>
				<g>
					<polygon id="Fill-41" points="259.2,7.411 259.2,15.33 256.603,15.33 256.603,9.255 254.149,9.255 254.149,15.33 
						251.553,15.33 251.553,7.411 					"/>
					<path id="Fill-43" d="M262.926,7.411l-2.837,7.919h2.54l0.297-1.049h2.583l0.311,1.049h2.584l-2.839-7.919H262.926z
						 M263.419,12.631l0.801-2.837l0.837,2.837H263.419z"/>
					<path id="Fill-45" d="M272.109,12.863h1.31c2.275,0,3.288-1.078,3.288-2.783c0-1.627-1.103-2.669-3.378-2.669h-3.814v7.918
						h2.595V12.863z M272.109,9.255h0.736c0.549,0,1.384,0.1,1.384,0.837c0,0.683-0.438,0.924-1.045,0.924h-1.075V9.255z"/>
					<polygon id="Fill-47" points="280.501,9.97 282.777,7.411 285.825,7.411 282.928,10.392 286.133,15.33 283.018,15.33 
						281.114,12.17 280.501,12.818 280.501,15.33 277.905,15.33 277.905,7.411 280.501,7.411 					"/>
					<path id="Fill-49" d="M198.614,10.531c-0.073-0.797-0.573-1.25-1.357-1.25c-0.877,0-1.41,0.75-1.41,2.224
						c0,1.069,0.234,2.077,1.506,2.077c0.808,0,1.188-0.561,1.284-1.292h2.406c-0.223,1.971-1.633,3.158-3.646,3.158
						c-2.524,0-4.05-1.545-4.05-4.029c0-2.469,1.674-4.007,3.803-4.007c2.333,0,3.637,1.157,3.839,3.119H198.614z"/>
					<polygon id="Fill-51" points="209.468,7.615 209.468,15.245 207.073,15.245 207.073,12.818 207.2,10.869 204.442,15.245 
						202.103,15.245 202.103,7.615 204.496,7.615 204.496,10.042 204.371,11.991 207.128,7.615 					"/>
					<polygon id="Fill-53" points="213.454,10.276 215.814,10.276 215.814,7.615 218.318,7.615 218.318,15.246 215.814,15.246 
						215.814,12.056 213.454,12.056 213.454,15.246 210.951,15.246 210.951,7.615 213.454,7.615 					"/>
					<polygon id="Fill-55" points="226.025,7.615 226.025,9.396 222.304,9.396 222.304,10.487 225.451,10.487 225.451,12.268 
						222.304,12.268 222.304,13.465 226.17,13.465 226.17,15.245 219.802,15.245 219.802,7.615 					"/>
					<path id="Fill-57" d="M230.411,7.615l1.347,4.757l1.348-4.757h3.021v7.63h-2.248v-2.331c0-0.859,0.063-1.685,0.16-2.565h-0.023
						l-1.389,4.896h-1.736l-1.391-4.896h-0.021c0.075,0.667,0.159,1.696,0.159,2.309v2.587h-2.247v-7.63H230.411z"/>
					<path id="Fill-59" d="M239.719,7.615l-2.732,7.63h2.446l0.286-1.006h2.489l0.294,1.006h2.494l-2.733-7.63H239.719z
						 M240.193,12.649l0.775-2.733l0.805,2.733H240.193z"/>
					<path id="Fill-70" d="M266.823,20.885l-2.861,4.916c-0.018,0.032-0.025,0.064-0.023,0.098c0.001,0.036,0.01,0.064,0.022,0.089
						c0.022,0.024,0.048,0.045,0.077,0.062c0.03,0.014,0.063,0.021,0.099,0.021h1.161c0.037,0,0.077-0.005,0.122-0.019
						c0.047-0.011,0.092-0.03,0.135-0.056c0.043-0.024,0.082-0.051,0.121-0.078c0.038-0.028,0.064-0.058,0.084-0.089l2.876-4.944
						h2.59l-3.618,6.22h-5.447c-0.122,0-0.228-0.012-0.322-0.033c-0.093-0.021-0.176-0.051-0.247-0.088
						c-0.066-0.044-0.121-0.094-0.166-0.152c-0.045-0.06-0.078-0.125-0.103-0.191c-0.024-0.068-0.037-0.145-0.044-0.227
						c-0.004-0.085,0-0.17,0.015-0.256c0.024-0.087,0.05-0.176,0.087-0.266c0.033-0.091,0.075-0.179,0.127-0.265l2.759-4.742
						H266.823z"/>
					<polygon id="Fill-72" points="263.312,20.885 261.125,20.885 258.439,23.067 259.65,20.885 257.279,20.885 253.657,27.105 
						256.086,27.101 257.516,24.252 257.744,24.02 258.385,27.105 260.845,27.104 259.957,23.706 					"/>
					<polygon id="Fill-74" points="274.673,20.885 273.229,23.366 275.108,23.366 276.552,20.885 279.029,20.885 275.416,27.096 
						272.94,27.096 274.508,24.398 272.63,24.398 271.058,27.096 268.563,27.096 272.174,20.885 					"/>
					<path id="Fill-76" d="M206.752,21.205c-0.049-0.099-0.128-0.174-0.237-0.225c-0.066-0.035-0.142-0.04-0.229-0.057
						c-0.085-0.019-0.175-0.004-0.268-0.004l-8.314-0.013c-0.08,0-0.005-0.004-0.093,0.007c-0.09,0.012-0.182,0.02-0.275,0.042
						c-0.087,0.021-0.176,0.05-0.269,0.091c-0.093,0.038-0.188,0.088-0.285,0.153c-0.084,0.051-0.168,0.116-0.256,0.197
						c-0.087,0.08-0.173,0.17-0.256,0.27c-0.051,0.062-0.099,0.128-0.145,0.197c-0.049,0.071-0.096,0.146-0.143,0.226l-2.252,3.871
						c-0.035,0.063-0.067,0.122-0.093,0.176c-0.025,0.056-0.044,0.106-0.056,0.152c-0.032,0.086-0.049,0.165-0.054,0.234
						c-0.004,0.069,0.001,0.134,0.013,0.192c0.021,0.057,0.049,0.109,0.09,0.155c0.039,0.045,0.085,0.087,0.136,0.121
						c0.07,0.04,0.152,0.063,0.245,0.079c0.092,0.019,0.192,0.021,0.298,0.021h2.973l-0.995,1.721h2.396l1.005-1.721h2.716
						c0.106,0,0.217-0.013,0.335-0.033c0.119-0.02,0.238-0.051,0.361-0.091c0.094-0.036,0.187-0.077,0.279-0.123
						c0.094-0.048,0.186-0.103,0.277-0.166c0.089-0.063,0.178-0.136,0.268-0.217c0.089-0.08,0.179-0.167,0.267-0.261
						c0.064-0.073,0.124-0.154,0.185-0.237c0.059-0.084,0.114-0.173,0.168-0.266l1.989-3.418c0.054-0.094,0.1-0.182,0.139-0.265
						c0.039-0.084,0.069-0.165,0.094-0.24c0.038-0.119,0.055-0.229,0.05-0.324C206.813,21.357,206.792,21.274,206.752,21.205
						 M196.207,26.192c-0.025-0.018-0.044-0.048-0.054-0.078c-0.014-0.022-0.02-0.052-0.021-0.085
						c-0.002-0.032,0.008-0.067,0.028-0.103l2.274-3.914c0.015-0.022,0.033-0.047,0.054-0.074c0.023-0.026,0.047-0.051,0.073-0.074
						c0.027-0.023,0.058-0.042,0.09-0.06c0.033-0.019,0.061-0.025,0.081-0.025h1.313c0.027,0,0.052,0.007,0.077,0.02
						c0.024,0.016,0.044,0.035,0.058,0.058c0.012,0.023,0.018,0.048,0.018,0.077c0,0.028-0.008,0.058-0.024,0.086l-2.28,3.923
						c-0.019,0.029-0.044,0.06-0.079,0.091c-0.034,0.031-0.076,0.06-0.123,0.084c-0.039,0.022-0.083,0.058-0.13,0.075
						c-0.047,0.019-0.086,0.043-0.12,0.043h-1.145C196.264,26.235,196.233,26.211,196.207,26.192 M204.277,22.02l-2.275,3.914
						c-0.018,0.028-0.044,0.06-0.077,0.092c-0.036,0.032-0.075,0.062-0.119,0.092c-0.036,0.016-0.073,0.058-0.11,0.07
						c-0.04,0.015-0.077,0.048-0.108,0.048h-1.104c-0.034,0-0.062-0.033-0.089-0.048c-0.024-0.013-0.043-0.044-0.055-0.068
						c-0.014-0.022-0.02-0.056-0.02-0.085c0-0.028,0.008-0.057,0.02-0.08l2.267-3.897c0.016-0.028,0.041-0.06,0.073-0.091
						c0.031-0.032,0.068-0.063,0.112-0.092c0.032-0.022,0.071-0.044,0.113-0.063c0.041-0.021,0.077-0.031,0.11-0.031h1.125
						c0.034,0,0.062,0.007,0.087,0.02c0.025,0.016,0.044,0.035,0.058,0.058c0.013,0.023,0.019,0.048,0.019,0.077
						C204.304,21.962,204.295,21.991,204.277,22.02"/>
					<path id="Fill-78" d="M213.634,20.876c0.091,0,0.181,0.005,0.263,0.018c0.084,0.011,0.156,0.028,0.224,0.052
						c0.067,0.022,0.121,0.054,0.161,0.091c0.041,0.037,0.074,0.086,0.103,0.144c0.018,0.058,0.024,0.125,0.024,0.202
						c-0.002,0.078-0.021,0.17-0.055,0.275c-0.023,0.063-0.054,0.132-0.089,0.204c-0.035,0.071-0.079,0.15-0.128,0.236l-2.227,3.827
						c-0.054,0.094-0.108,0.178-0.164,0.257c-0.055,0.078-0.112,0.152-0.173,0.221c-0.074,0.08-0.15,0.156-0.23,0.226
						c-0.08,0.07-0.16,0.128-0.24,0.174c-0.077,0.053-0.158,0.096-0.243,0.134c-0.084,0.039-0.168,0.068-0.246,0.092
						c-0.104,0.028-0.208,0.048-0.311,0.061c-0.103,0.012-0.2,0.018-0.293,0.018h-4.087c-0.106,0-0.205-0.01-0.299-0.026
						c-0.093-0.017-0.174-0.047-0.243-0.087c-0.052-0.034-0.099-0.076-0.139-0.121c-0.04-0.046-0.067-0.099-0.088-0.155
						c-0.014-0.059-0.019-0.123-0.014-0.192c0.004-0.069,0.022-0.147,0.053-0.234c0.013-0.046,0.031-0.097,0.058-0.151
						s0.057-0.114,0.094-0.177l2.251-3.871c0.048-0.082,0.093-0.156,0.141-0.226c0.047-0.07,0.097-0.136,0.146-0.2
						c0.085-0.098,0.171-0.186,0.258-0.268c0.086-0.08,0.171-0.147,0.254-0.2c0.099-0.063,0.19-0.115,0.285-0.156
						c0.093-0.04,0.185-0.072,0.27-0.095c0.094-0.023,0.184-0.041,0.273-0.052c0.089-0.013,0.175-0.018,0.254-0.018H213.634z
						 M211.656,21.776h-1.313c-0.021,0-0.047,0.01-0.081,0.027c-0.033,0.017-0.063,0.037-0.089,0.061s-0.051,0.048-0.074,0.074
						c-0.02,0.026-0.038,0.049-0.051,0.073l-2.275,3.913c-0.022,0.036-0.029,0.068-0.029,0.101c0.003,0.031,0.007,0.059,0.022,0.083
						c0.008,0.029,0.028,0.05,0.054,0.068c0.024,0.017,0.055,0.025,0.09,0.025h1.143c0.033,0,0.073-0.009,0.12-0.025
						c0.047-0.019,0.089-0.037,0.13-0.06c0.048-0.024,0.087-0.053,0.124-0.085c0.032-0.03,0.058-0.061,0.074-0.09l2.283-3.922
						c0.018-0.029,0.025-0.058,0.025-0.087s-0.007-0.053-0.02-0.077c-0.014-0.025-0.032-0.043-0.057-0.058
						C211.709,21.785,211.684,21.776,211.656,21.776z"/>
					<path id="Fill-80" d="M220.904,20.885c0.092,0,0.182,0.009,0.27,0.026c0.084,0.018,0.16,0.042,0.226,0.077
						c0.111,0.051,0.188,0.127,0.238,0.227c0.036,0.068,0.06,0.151,0.065,0.245c0.004,0.099-0.015,0.207-0.053,0.326
						c-0.022,0.076-0.054,0.156-0.093,0.24c-0.038,0.083-0.086,0.171-0.139,0.263l-1.989,3.42c-0.053,0.092-0.108,0.181-0.168,0.266
						c-0.059,0.083-0.119,0.161-0.183,0.237c-0.088,0.092-0.177,0.18-0.267,0.262c-0.09,0.079-0.179,0.151-0.271,0.215
						c-0.09,0.064-0.181,0.119-0.273,0.166c-0.093,0.044-0.186,0.085-0.28,0.121c-0.123,0.04-0.243,0.07-0.362,0.092
						c-0.117,0.019-0.228,0.029-0.334,0.029h-2.715l-1.006,1.726h-2.397l4.622-7.938H220.904z M219.027,21.786h-1.126
						c-0.032,0-0.07,0.012-0.111,0.03c-0.041,0.021-0.079,0.045-0.111,0.065c-0.043,0.029-0.081,0.061-0.114,0.091
						c-0.032,0.032-0.057,0.064-0.072,0.092l-2.267,3.896c-0.013,0.023-0.02,0.049-0.02,0.078c-0.002,0.028,0.006,0.054,0.019,0.077
						c0.012,0.023,0.033,0.042,0.057,0.056c0.026,0.016,0.054,0.023,0.087,0.023h1.104c0.031,0,0.068-0.008,0.106-0.023
						c0.038-0.014,0.076-0.029,0.113-0.047c0.043-0.029,0.082-0.06,0.116-0.092c0.035-0.03,0.063-0.062,0.079-0.091l2.274-3.913
						c0.018-0.028,0.026-0.058,0.026-0.087c0-0.028-0.005-0.055-0.02-0.077c-0.013-0.024-0.031-0.043-0.056-0.057
						S219.06,21.786,219.027,21.786z"/>
					<polygon id="Fill-82" points="223.187,20.892 226.389,20.892 225.583,24.431 228.995,20.892 232.119,20.892 228.501,27.111 
						226.033,27.111 228.921,22.149 224.18,27.104 222.458,27.104 223.509,22.201 220.657,27.104 219.572,27.104 					"/>
					<path id="Fill-84" d="M235.48,20.885l-2.933,5.041c-0.017,0.029-0.027,0.059-0.032,0.09c-0.005,0.033-0.001,0.06,0.011,0.084
						c0.007,0.034,0.025,0.059,0.054,0.077c0.03,0.017,0.062,0.025,0.095,0.025h1.084c0.033,0,0.067-0.007,0.103-0.021
						c0.034-0.015,0.071-0.037,0.107-0.065c0.034-0.023,0.064-0.051,0.094-0.084c0.028-0.029,0.048-0.058,0.063-0.082l2.946-5.065
						h2.389l-3.987,6.853c-0.032,0.059-0.076,0.119-0.125,0.184c-0.051,0.063-0.105,0.128-0.161,0.19
						c-0.063,0.064-0.131,0.123-0.201,0.183c-0.069,0.058-0.143,0.112-0.22,0.164c-0.077,0.053-0.158,0.1-0.244,0.143
						c-0.084,0.044-0.173,0.085-0.265,0.118c-0.092,0.03-0.181,0.051-0.275,0.069c-0.093,0.019-0.189,0.026-0.288,0.026h-4.933
						l0.513-0.886h3.344c0.054,0,0.106-0.006,0.16-0.021c0.055-0.015,0.105-0.034,0.153-0.057c0.041-0.023,0.076-0.049,0.108-0.079
						c0.033-0.029,0.063-0.059,0.082-0.094l0.333-0.572h-2.598c-0.118,0-0.225-0.013-0.315-0.034
						c-0.095-0.025-0.174-0.06-0.239-0.104c-0.066-0.046-0.118-0.102-0.158-0.165c-0.041-0.064-0.068-0.138-0.088-0.218
						c-0.014-0.057-0.018-0.121-0.014-0.191c0.006-0.068,0.014-0.141,0.03-0.216c0.018-0.075,0.046-0.153,0.078-0.234
						c0.034-0.082,0.076-0.165,0.127-0.25l2.795-4.808H235.48z"/>
					<path id="Fill-86" d="M243.7,22.026l-2.945,5.066h2.426l3.61-6.207h-4.438c-0.253,0-0.506,0.036-0.762,0.135
						c-0.228,0.081-0.445,0.198-0.655,0.355c-0.079,0.059-0.163,0.125-0.246,0.202c-0.087,0.077-0.167,0.163-0.244,0.249
						c-0.078,0.086-0.151,0.177-0.223,0.278c-0.07,0.097-3.557,4.987-3.557,4.987h2.408l3.618-5.058
						c0.025-0.047,0.058-0.085,0.091-0.117c0.037-0.032,0.074-0.06,0.114-0.082c0.049-0.029,0.099-0.05,0.148-0.062
						c0.051-0.011,0.094-0.018,0.135-0.018h0.369c0.032,0,0.065,0.007,0.098,0.018c0.034,0.012,0.058,0.029,0.07,0.053
						c0.016,0.017,0.023,0.043,0.023,0.077C243.741,21.939,243.729,21.979,243.7,22.026"/>
					<path id="Fill-88" d="M247.834,27.098c-0.873,0-1.746,0.002-2.619,0c-0.16-0.001-0.313-0.034-0.441-0.139
						c-0.114-0.094-0.169-0.218-0.177-0.362c-0.012-0.194,0.042-0.372,0.138-0.538c0.234-0.408,0.472-0.817,0.71-1.224
						c0.16-0.277,0.319-0.553,0.48-0.827c0.2-0.341,0.483-0.6,0.818-0.804c0.212-0.127,0.437-0.221,0.678-0.266
						c0.093-0.017,0.186-0.021,0.276-0.021c0.804-0.001,1.607-0.003,2.41,0.001c0.124,0,0.233-0.03,0.336-0.095
						c0.128-0.081,0.247-0.172,0.335-0.299c0.034-0.049,0.059-0.104,0.071-0.164c0.015-0.068,0-0.13-0.035-0.189
						c-0.03-0.049-0.077-0.068-0.134-0.068c-0.353,0-3.661-0.001-3.661-0.001l0.7-1.215c0,0,3.879,0.002,4.94,0.002
						c0.14,0,0.277,0.005,0.41,0.054c0.299,0.112,0.384,0.294,0.38,0.578c-0.007,0.331-0.127,0.628-0.258,0.922
						c-0.155,0.35-0.358,0.672-0.548,1.001c-0.271,0.465-0.539,0.929-0.81,1.392c-0.382,0.655-0.763,1.31-1.144,1.966
						c-0.051,0.085-0.102,0.174-0.15,0.26c-0.015,0.027-0.032,0.038-0.063,0.038c-0.297-0.001-0.597-0.001-0.894-0.001H247.834z
						 M248.784,24.116c-0.165-0.007-0.311,0.039-0.445,0.13c-0.131,0.091-0.259,0.19-0.342,0.335
						c-0.243,0.419-0.486,0.837-0.73,1.255c-0.019,0.035-0.038,0.07-0.049,0.106c-0.035,0.116,0.011,0.221,0.118,0.254
						c0.031,0.009,0.063,0.013,0.097,0.013c0.262,0,0.523,0,0.787,0c0.27-0.003,0.467-0.138,0.613-0.354
						c0.074-0.113,0.135-0.236,0.201-0.353c0.257-0.45,0.786-1.386,0.786-1.386H248.784z"/>
					<path id="Fill-90" d="M285.359,20.876c0.094,0,0.18,0.006,0.262,0.018c0.085,0.011,0.159,0.028,0.224,0.053
						c0.066,0.021,0.121,0.053,0.162,0.09c0.041,0.038,0.073,0.086,0.101,0.144c0.018,0.058,0.027,0.126,0.025,0.203
						c-0.003,0.079-0.02,0.169-0.055,0.274c-0.024,0.063-0.054,0.132-0.089,0.204s-0.078,0.15-0.129,0.236l-2.225,3.828
						c-0.055,0.093-0.109,0.179-0.165,0.256c-0.055,0.078-0.111,0.152-0.173,0.221c-0.074,0.083-0.151,0.156-0.23,0.226
						c-0.081,0.07-0.161,0.128-0.24,0.174c-0.076,0.053-0.158,0.097-0.242,0.134c-0.086,0.039-0.168,0.068-0.246,0.092
						c-0.104,0.028-0.207,0.049-0.311,0.061s-0.2,0.018-0.293,0.018h-4.088c-0.107,0-0.206-0.009-0.299-0.025
						c-0.094-0.018-0.172-0.048-0.243-0.087c-0.053-0.035-0.098-0.076-0.138-0.122c-0.041-0.046-0.07-0.098-0.089-0.155
						c-0.012-0.059-0.018-0.123-0.013-0.192c0.004-0.069,0.021-0.146,0.052-0.234c0.014-0.046,0.033-0.097,0.059-0.151
						c0.023-0.054,0.057-0.114,0.093-0.177l2.25-3.871c0.048-0.082,0.096-0.154,0.142-0.226c0.047-0.069,0.097-0.136,0.146-0.197
						c0.084-0.1,0.17-0.188,0.257-0.271c0.087-0.08,0.172-0.147,0.255-0.199c0.096-0.064,0.191-0.116,0.283-0.156
						c0.096-0.04,0.184-0.073,0.271-0.095c0.093-0.024,0.185-0.042,0.274-0.053c0.09-0.012,0.174-0.018,0.254-0.018H285.359z
						 M283.382,21.778h-1.313c-0.02,0-0.047,0.008-0.08,0.025c-0.034,0.017-0.063,0.037-0.09,0.061s-0.051,0.048-0.073,0.074
						c-0.021,0.027-0.038,0.051-0.051,0.073l-2.278,3.914c-0.02,0.035-0.027,0.067-0.027,0.1c0.002,0.032,0.008,0.059,0.021,0.083
						c0.01,0.029,0.028,0.052,0.055,0.07c0.024,0.017,0.056,0.024,0.089,0.024h1.146c0.031,0,0.072-0.008,0.118-0.024
						c0.045-0.019,0.089-0.039,0.131-0.062c0.045-0.024,0.086-0.053,0.122-0.084c0.034-0.031,0.061-0.062,0.077-0.091l2.281-3.922
						c0.018-0.029,0.025-0.057,0.027-0.085c0-0.03-0.008-0.055-0.021-0.079c-0.013-0.022-0.032-0.042-0.056-0.058
						C283.435,21.786,283.407,21.778,283.382,21.778z"/>
				</g>
				<g>
					<polygon points="101.182,28.498 107.485,28.5 99.039,15.896 106.88,7.171 100.955,7.171 93.111,15.901 93.111,7.171 
						88.063,7.171 88.063,28.5 93.111,28.5 93.111,22.494 95.429,19.915 					"/>
					<polygon points="123.911,7.171 123.351,7.902 113.783,20.375 113.783,7.171 108.735,7.171 108.735,28.5 111.182,28.5 
						113.248,28.5 113.783,27.804 123.351,15.331 123.351,28.5 128.399,28.5 128.399,8.748 128.399,7.171 					"/>
					<polygon points="144.568,7.171 144.568,15.494 135.947,15.494 135.947,7.171 130.899,7.171 130.899,15.494 130.899,19.995 
						130.899,28.5 135.947,28.5 135.947,19.995 144.568,19.995 144.568,28.5 149.617,28.5 149.617,19.995 149.617,15.494 
						149.617,7.171 					"/>
					<g>
						<path d="M162.556,7.17c-5.901,0-10.684,4.774-10.684,10.665c0,5.89,4.783,10.665,10.684,10.665
							c5.901,0,10.685-4.775,10.685-10.665C173.24,11.944,168.457,7.17,162.556,7.17 M162.556,23.759
							c-3.277,0-5.935-2.651-5.935-5.924s2.658-5.925,5.935-5.925c3.278,0,5.936,2.652,5.936,5.925S165.834,23.759,162.556,23.759"
							/>
						<path d="M162.311,0.967c-1.312,0-2.374,1.063-2.374,2.373c0,1.311,1.063,2.372,2.374,2.372c1.313,0,2.375-1.062,2.375-2.372
							C164.686,2.029,163.623,0.967,162.311,0.967"/>
						<path d="M156.106,0.967c-1.311,0-2.374,1.063-2.374,2.373c0,1.311,1.063,2.372,2.374,2.372s2.372-1.062,2.372-2.372
							C158.479,2.029,157.417,0.967,156.106,0.967"/>
						<path d="M168.515,0.967c-1.311,0-2.375,1.063-2.375,2.373c0,1.311,1.064,2.372,2.375,2.372c1.312,0,2.374-1.062,2.374-2.372
							C170.889,2.029,169.826,0.967,168.515,0.967"/>
					</g>
				</g>
			</g>
		</g>
	</g>
</g>
<line stroke="#000000" stroke-width="1.7008" stroke-miterlimit="10" x1="184.167" y1="7.5" x2="184.167" y2="28.636"/>
</svg>
